<?xml version="1.0" standalone="no"?>
<!DOCTYPE svg PUBLIC "-//W3C//DTD SVG 20010904//EN"
 "http://www.w3.org/TR/2001/REC-SVG-20010904/DTD/svg10.dtd">
<svg version="1.0" xmlns="http://www.w3.org/2000/svg"
 width="870.000000pt" height="659.000000pt" viewBox="0 0 870.000000 659.000000"
 preserveAspectRatio="xMidYMid meet">

<g transform="translate(0.000000,659.000000) scale(0.100000,-0.100000)"
fill="#000000" stroke="none">
<path d="M0 3295 l0 -3295 4350 0 4350 0 0 3295 0 3295 -4350 0 -4350 0 0
-3295z m6888 1050 c16 -35 15 -45 -5 -45 -49 -1 -46 -13 34 -174 l78 -157 37
6 c34 6 38 4 53 -25 9 -18 15 -33 13 -35 -4 -5 -204 -55 -217 -55 -9 0 -41 50
-41 64 0 2 14 7 30 11 17 4 30 10 30 13 0 4 -34 76 -76 161 l-76 153 -37 -6
c-34 -5 -38 -3 -49 26 -6 17 -10 33 -8 35 7 8 171 51 197 52 19 1 29 -6 37
-24z m-409 -289 l93 -193 92 23 c50 13 96 24 102 24 6 0 18 -16 27 -35 13 -27
14 -37 4 -40 -6 -2 -72 -19 -146 -38 l-134 -34 -109 226 c-61 124 -112 229
-114 233 -5 7 49 26 76 27 10 0 48 -68 109 -193z m-333 109 c27 -8 62 -25 77
-37 l28 -23 -29 -28 -29 -28 -38 25 c-43 29 -71 32 -120 12 -68 -29 -72 -87
-15 -204 45 -94 79 -122 147 -122 70 0 113 33 113 86 0 13 8 14 43 9 54 -9 61
-16 52 -54 -21 -97 -156 -148 -287 -109 -82 24 -162 120 -199 239 -39 126 10
214 133 238 63 13 69 12 124 -4z m-691 -157 c2 -7 13 -110 24 -228 12 -118 23
-229 26 -247 6 -31 5 -32 -51 -44 l-56 -13 -62 65 c-92 96 -310 339 -318 354
-5 9 6 16 37 25 25 7 47 11 48 9 1 -2 41 -47 88 -99 47 -52 114 -130 149 -173
35 -44 66 -74 68 -68 2 7 -1 42 -8 79 -11 63 -40 293 -40 319 0 6 17 15 38 21
51 14 52 14 57 0z m-470 -150 c16 -39 14 -40 -67 -58 -36 -8 -58 -18 -58 -27
0 -7 38 -98 85 -200 47 -103 82 -190 78 -194 -5 -4 -26 -11 -48 -14 l-40 -7
-89 196 c-99 218 -88 207 -186 181 -30 -8 -55 -13 -56 -12 -9 11 -35 70 -32
72 8 8 344 93 371 94 23 1 31 -5 42 -31z m845 -39 c12 -23 20 -42 18 -43 -2
-2 -49 -14 -106 -28 l-103 -26 -20 40 c-11 22 -19 41 -17 43 3 3 184 52 200
54 4 1 17 -17 28 -40z m-1337 -117 c62 -34 103 -80 140 -162 41 -89 42 -164 3
-215 -15 -19 -37 -42 -49 -50 -24 -15 -178 -62 -237 -71 l-37 -6 -105 238
c-71 159 -102 241 -94 245 11 6 169 45 216 53 46 8 115 -6 163 -32z m-804 -1
c21 -11 46 -32 55 -46 10 -15 71 -151 137 -303 80 -185 119 -288 119 -313 0
-47 -32 -89 -68 -89 -16 0 -32 -8 -39 -19 -7 -11 -38 -29 -70 -41 -61 -23
-577 -147 -651 -157 -50 -7 -118 16 -151 51 -30 32 -261 607 -261 651 0 24 9
45 29 67 27 30 46 36 392 124 389 99 445 107 508 75z"/>
<path d="M4306 3644 c-33 -8 -62 -16 -64 -19 -5 -4 126 -304 138 -319 14 -14
121 24 151 54 37 36 37 63 -2 155 -29 71 -82 135 -112 135 -7 0 -21 2 -32 5
-11 2 -47 -3 -79 -11z"/>
<path d="M3226 3576 c-377 -96 -396 -103 -396 -148 0 -10 25 -78 56 -151 30
-72 83 -199 116 -282 34 -82 68 -158 76 -167 30 -35 63 -31 358 46 159 42 304
80 322 85 18 5 56 8 85 7 50 -2 53 -1 70 31 9 19 17 44 17 56 0 13 -29 90 -65
172 -36 83 -89 204 -117 270 -56 132 -78 162 -123 170 -20 3 -157 -27 -399
-89z m-13 -255 c93 -63 108 -81 114 -135 5 -38 0 -54 -31 -110 -39 -69 -49
-76 -82 -52 -19 15 -18 16 14 78 51 102 45 117 -71 171 -42 20 -77 41 -77 46
0 21 25 51 43 51 10 0 50 -22 90 -49z m472 -119 c9 -6 35 -56 35 -67 0 -3 -16
-5 -36 -5 -20 0 -62 -6 -93 -14 -115 -29 -108 -29 -119 3 l-10 29 66 17 c37
10 83 23 102 31 42 16 42 16 55 6z"/>
</g>
</svg>
